<svg width="195" height="20" viewBox="0 0 195 20" fill="none" xmlns="http://www.w3.org/2000/svg">
<path d="M6.16797 11.7612H1.10205V10.4795H6.16797C7.22591 10.4795 8.08447 10.3086 8.74365 9.9668C9.41097 9.61686 9.89518 9.14486 10.1963 8.55078C10.5055 7.95671 10.6602 7.28939 10.6602 6.54883C10.6602 5.82454 10.5055 5.15723 10.1963 4.54688C9.89518 3.93652 9.41097 3.44824 8.74365 3.08203C8.08447 2.70768 7.22591 2.52051 6.16797 2.52051H1.62695V19H0.125488V1.22656H6.16797C7.47005 1.22656 8.56462 1.45036 9.45166 1.89795C10.3468 2.34554 11.0223 2.9681 11.478 3.76562C11.9338 4.56315 12.1616 5.48275 12.1616 6.52441C12.1616 7.61491 11.9338 8.55485 11.478 9.34424C11.0223 10.1255 10.3509 10.7236 9.46387 11.1387C8.57682 11.5537 7.47819 11.7612 6.16797 11.7612ZM26.5781 17.7183V19H16.5806V17.7183H26.5781ZM17.0322 1.22656V19H15.5308V1.22656H17.0322ZM25.333 9.19775V10.4795H16.5806V9.19775H25.333ZM26.5171 1.22656V2.52051H16.5806V1.22656H26.5171ZM35.9653 1.22656V19H34.4761V1.22656H35.9653ZM42.0566 1.22656V2.52051H28.397V1.22656H42.0566ZM44.9131 1.22656H50.687C51.9159 1.22656 52.9819 1.42594 53.8853 1.82471C54.7886 2.22347 55.4844 2.81348 55.9727 3.59473C56.4691 4.36784 56.7173 5.31999 56.7173 6.45117C56.7173 7.28939 56.5382 8.05029 56.1802 8.73389C55.8302 9.41748 55.346 9.99121 54.7275 10.4551C54.109 10.9108 53.3929 11.2241 52.5791 11.395L52.0542 11.5903H45.8896L45.8652 10.3086H51.0288C51.9565 10.3086 52.7297 10.1296 53.3481 9.77148C53.9666 9.41341 54.4305 8.94141 54.7397 8.35547C55.0571 7.76139 55.2158 7.12663 55.2158 6.45117C55.2158 5.64551 55.0409 4.94971 54.6909 4.36377C54.3491 3.76969 53.8405 3.31396 53.165 2.99658C52.4896 2.6792 51.6636 2.52051 50.687 2.52051H46.4146V19H44.9131V1.22656ZM55.8872 19L51.2852 11.0532L52.8965 11.041L57.4863 18.8413V19H55.8872ZM73.9658 9.16113V11.0654C73.9658 12.3105 73.8031 13.4377 73.4775 14.4468C73.1602 15.4478 72.6963 16.3063 72.0859 17.0225C71.4837 17.7386 70.7594 18.2879 69.9131 18.6704C69.0667 19.0529 68.1146 19.2441 67.0566 19.2441C66.0231 19.2441 65.0791 19.0529 64.2246 18.6704C63.3783 18.2879 62.6499 17.7386 62.0396 17.0225C61.4292 16.3063 60.9572 15.4478 60.6235 14.4468C60.2899 13.4377 60.123 12.3105 60.123 11.0654V9.16113C60.123 7.91602 60.2858 6.79297 60.6113 5.79199C60.945 4.78288 61.417 3.92025 62.0273 3.2041C62.6377 2.48796 63.366 1.93864 64.2124 1.55615C65.0588 1.17367 65.9987 0.982422 67.0322 0.982422C68.0902 0.982422 69.0423 1.17367 69.8887 1.55615C70.735 1.93864 71.4634 2.48796 72.0737 3.2041C72.6841 3.92025 73.152 4.78288 73.4775 5.79199C73.8031 6.79297 73.9658 7.91602 73.9658 9.16113ZM72.4766 11.0654V9.13672C72.4766 8.08691 72.3545 7.1429 72.1104 6.30469C71.8743 5.46647 71.5203 4.75033 71.0483 4.15625C70.5845 3.56217 70.0148 3.10645 69.3394 2.78906C68.6639 2.47168 67.8949 2.31299 67.0322 2.31299C66.194 2.31299 65.4412 2.47168 64.7739 2.78906C64.1066 3.10645 63.5369 3.56217 63.0649 4.15625C62.6011 4.75033 62.243 5.46647 61.9907 6.30469C61.7466 7.1429 61.6245 8.08691 61.6245 9.13672V11.0654C61.6245 12.1234 61.7466 13.0755 61.9907 13.9219C62.243 14.7601 62.6051 15.4803 63.0771 16.0825C63.5492 16.6766 64.1188 17.1323 64.7861 17.4497C65.4616 17.7671 66.2184 17.9258 67.0566 17.9258C67.9274 17.9258 68.6965 17.7671 69.3638 17.4497C70.0311 17.1323 70.5967 16.6766 71.0605 16.0825C71.5244 15.4803 71.8743 14.7601 72.1104 13.9219C72.3545 13.0755 72.4766 12.1234 72.4766 11.0654ZM88.0405 17.7183V19H78.8242V17.7183H88.0405ZM79.2637 1.22656V19H77.7622V1.22656H79.2637ZM103.165 10.4551H98.1602L98.1357 9.18555H102.445C103.324 9.18555 104.072 9.05941 104.691 8.80713C105.309 8.55485 105.777 8.1805 106.095 7.68408C106.42 7.17952 106.583 6.56104 106.583 5.82861C106.583 5.07992 106.424 4.46143 106.107 3.97314C105.79 3.47673 105.313 3.11051 104.679 2.87451C104.044 2.63851 103.246 2.52051 102.286 2.52051H98.5508V19H97.0493V1.22656H102.286C103.189 1.22656 103.999 1.31608 104.715 1.49512C105.431 1.67415 106.042 1.95492 106.546 2.3374C107.051 2.71989 107.433 3.2041 107.694 3.79004C107.962 4.36784 108.097 5.05957 108.097 5.86523C108.097 6.59766 107.934 7.2609 107.608 7.85498C107.283 8.44092 106.823 8.92106 106.229 9.29541C105.643 9.66162 104.939 9.88949 104.117 9.979L103.165 10.4551ZM103.055 19H97.6841L98.4531 17.7183H103.055C103.934 17.7183 104.683 17.5718 105.301 17.2788C105.928 16.9777 106.408 16.5505 106.742 15.9971C107.075 15.4437 107.242 14.7845 107.242 14.0195C107.242 13.3441 107.096 12.7378 106.803 12.2007C106.51 11.6636 106.062 11.2404 105.46 10.9312C104.858 10.6138 104.093 10.4551 103.165 10.4551H100.052L100.077 9.18555H104.483L104.752 9.63721C105.549 9.71859 106.245 9.9668 106.839 10.3818C107.442 10.7887 107.905 11.3055 108.231 11.9321C108.565 12.5588 108.731 13.2464 108.731 13.9951C108.731 15.0693 108.491 15.9808 108.011 16.7295C107.539 17.4701 106.876 18.0356 106.021 18.4263C105.175 18.8088 104.186 19 103.055 19ZM114.212 1.22656V19H112.711V1.22656H114.212ZM129.105 14.6299C129.105 14.1416 129.024 13.7062 128.861 13.3237C128.698 12.9412 128.43 12.5994 128.055 12.2983C127.689 11.9891 127.193 11.7043 126.566 11.4438C125.947 11.1753 125.174 10.9108 124.247 10.6504C123.36 10.3981 122.558 10.1214 121.842 9.82031C121.126 9.51921 120.511 9.17334 119.999 8.78271C119.494 8.39209 119.107 7.93636 118.839 7.41553C118.57 6.88656 118.436 6.27214 118.436 5.57227C118.436 4.88867 118.583 4.26611 118.875 3.70459C119.168 3.14307 119.579 2.65885 120.108 2.25195C120.646 1.84505 121.276 1.53174 122 1.31201C122.733 1.09229 123.535 0.982422 124.405 0.982422C125.65 0.982422 126.725 1.21842 127.628 1.69043C128.539 2.16243 129.243 2.80127 129.74 3.60693C130.244 4.40446 130.497 5.29964 130.497 6.29248H128.995C128.995 5.51937 128.812 4.83171 128.446 4.22949C128.088 3.61914 127.567 3.14307 126.883 2.80127C126.208 2.45133 125.382 2.27637 124.405 2.27637C123.429 2.27637 122.607 2.42692 121.939 2.72803C121.28 3.021 120.78 3.41569 120.438 3.91211C120.104 4.40039 119.938 4.94564 119.938 5.54785C119.938 5.97103 120.019 6.36165 120.182 6.71973C120.344 7.06966 120.609 7.39925 120.975 7.7085C121.349 8.0096 121.842 8.29443 122.452 8.56299C123.062 8.8234 123.815 9.07161 124.71 9.30762C125.654 9.56803 126.493 9.85693 127.225 10.1743C127.958 10.4917 128.576 10.8579 129.081 11.2729C129.585 11.6799 129.968 12.1559 130.228 12.7012C130.488 13.2464 130.619 13.8812 130.619 14.6055C130.619 15.3298 130.464 15.9808 130.155 16.5586C129.854 17.1283 129.426 17.6125 128.873 18.0112C128.328 18.41 127.681 18.7152 126.932 18.9268C126.192 19.1383 125.382 19.2441 124.503 19.2441C123.714 19.2441 122.928 19.1424 122.147 18.939C121.366 18.7355 120.65 18.4222 119.999 17.999C119.356 17.5677 118.839 17.0143 118.448 16.3389C118.066 15.6634 117.875 14.8577 117.875 13.9219H119.364C119.364 14.6706 119.514 15.3013 119.815 15.814C120.117 16.3267 120.515 16.7417 121.012 17.0591C121.516 17.3765 122.07 17.6084 122.672 17.7549C123.282 17.8932 123.893 17.9624 124.503 17.9624C125.439 17.9624 126.249 17.8241 126.932 17.5474C127.624 17.2707 128.157 16.8841 128.531 16.3877C128.914 15.8831 129.105 15.2972 129.105 14.6299ZM145.816 9.19775V10.4795H135.013V9.19775H145.816ZM135.367 1.22656V19H133.866V1.22656H135.367ZM147.025 1.22656V19H145.523V1.22656H147.025ZM153.067 1.22656V19H151.566V1.22656H153.067ZM164.054 1.22656L156.388 9.36865L152.53 13.165L152.384 11.4927L155.484 8.27002L162.174 1.22656H164.054ZM162.809 19L155.326 9.86914L156.229 8.66064L164.627 19H162.809ZM178.409 17.7183V19H168.412V17.7183H178.409ZM168.863 1.22656V19H167.362V1.22656H168.863ZM177.164 9.19775V10.4795H168.412V9.19775H177.164ZM178.348 1.22656V2.52051H168.412V1.22656H178.348ZM183.097 1.22656V19H181.595V1.22656H183.097ZM194.083 1.22656L186.417 9.36865L182.56 13.165L182.413 11.4927L185.514 8.27002L192.203 1.22656H194.083ZM192.838 19L185.355 9.86914L186.258 8.66064L194.657 19H192.838Z" fill="#9A9A9A"/>
</svg>
